<?xml version="1.0" encoding="UTF-8" standalone="no"?>
<svg xmlns:ffdec="https://www.free-decompiler.com/flash" xmlns:xlink="http://www.w3.org/1999/xlink" ffdec:objectType="shape" height="20.0px" width="11.0px" xmlns="http://www.w3.org/2000/svg">
  <g transform="matrix(1.0, 0.0, 0.0, 1.0, 5.5, 10.0)">
    <path d="M0.7 -10.0 Q2.65 -10.0 4.05 -8.7 5.5 -7.3 5.5 -5.45 L5.5 5.45 Q5.5 7.3 4.05 8.65 2.65 10.0 0.7 10.0 L-0.75 10.0 Q-2.7 10.0 -4.1 8.65 -5.5 7.3 -5.5 5.45 L-5.5 -5.45 Q-5.5 -7.3 -4.1 -8.7 -2.7 -10.0 -0.75 -10.0 L0.7 -10.0" fill="#b8b8b8" fill-rule="evenodd" stroke="none"/>
    <path d="M3.3 -7.8 Q4.5 -6.55 4.5 -4.9 L4.5 4.95 Q4.5 6.6 3.3 7.8 2.15 9.0 0.55 9.0 L-0.6 9.0 Q-2.2 9.0 -3.35 7.8 -4.5 6.6 -4.5 4.95 L-4.5 -4.9 Q-4.5 -6.55 -3.35 -7.8 -2.2 -9.0 -0.6 -9.0 L0.55 -9.0 Q2.15 -9.0 3.3 -7.8" fill="url(#gradient0)" fill-rule="evenodd" stroke="none"/>
  </g>
  <defs>
    <linearGradient gradientTransform="matrix(0.0055, 0.0, 0.0, 0.011, 0.0, 0.0)" gradientUnits="userSpaceOnUse" id="gradient0" spreadMethod="pad" x1="-819.2" x2="819.2">
      <stop offset="0.0" stop-color="#e0e0e0"/>
      <stop offset="0.5058823529411764" stop-color="#f4f4f4"/>
      <stop offset="1.0" stop-color="#e0e0e0"/>
    </linearGradient>
  </defs>
</svg>
