<?xml version="1.0" encoding="UTF-8" standalone="no"?>
<svg xmlns:ffdec="https://www.free-decompiler.com/flash" xmlns:xlink="http://www.w3.org/1999/xlink" ffdec:objectType="shape" height="8.0px" width="142.0px" xmlns="http://www.w3.org/2000/svg">
  <g transform="matrix(1.0, 0.0, 0.0, 1.0, 1.0, 4.0)">
    <path d="M138.5 -4.0 Q139.55 -4.0 140.25 -2.85 141.0 -1.65 141.0 0.0 141.0 1.65 140.25 2.8 139.55 4.0 138.5 4.0 L1.55 4.0 Q0.5 4.0 -0.25 2.8 -1.0 1.65 -1.0 0.0 -1.0 -1.65 -0.25 -2.85 0.5 -4.0 1.55 -4.0 L138.5 -4.0" fill="#c0c0c0" fill-rule="evenodd" stroke="none"/>
    <path d="M64.7 3.0 L2.5 3.0 Q1.45 3.0 0.75 2.15 0.0 1.25 0.0 0.0 0.0 -1.25 0.75 -2.1 1.45 -3.0 2.5 -3.0 L64.7 -3.0 64.7 3.0" fill="url(#gradient0)" fill-rule="evenodd" stroke="none"/>
    <path d="M64.7 3.0 L64.7 -3.0 137.5 -3.0 Q138.55 -3.0 139.3 -2.1 140.0 -1.25 140.0 0.0 140.0 1.25 139.3 2.15 138.55 3.0 137.5 3.0 L64.7 3.0" fill="url(#gradient1)" fill-rule="evenodd" stroke="none"/>
  </g>
  <defs>
    <linearGradient gradientTransform="matrix(0.0, 0.0037, -0.1099, 0.0, 90.0, 0.0)" gradientUnits="userSpaceOnUse" id="gradient0" spreadMethod="pad" x1="-819.2" x2="819.2">
      <stop offset="0.0" stop-color="#fafafa"/>
      <stop offset="1.0" stop-color="#d0d0d0"/>
    </linearGradient>
    <linearGradient gradientTransform="matrix(0.0, 0.0037, -0.1099, 0.0, 50.0, 0.0)" gradientUnits="userSpaceOnUse" id="gradient1" spreadMethod="pad" x1="-819.2" x2="819.2">
      <stop offset="0.0" stop-color="#fafafa"/>
      <stop offset="1.0" stop-color="#d0d0d0"/>
    </linearGradient>
  </defs>
</svg>
